PathFileType	4	(X/Y/Z)	walk-thru1-5-TP.trc
DataRate	CameraRate	NumFrames	NumMarkers	Units	OrigDataRate	OrigDataStartFrame	OrigNumFrames
120.00	120.00	       4	60	mm	120.00	63	       498
Frame#	Time	Top.Head			Front.Head			Rear.Head			Jaw			C7			R.Clavicle			L.Clavicle			R.Shoulder			L.Shoulder			R.Scapula			L.Scapula			R.Scap.Inf			R.Biceps.Lateral			R.Elbow			R.Elbow.Medial			R.Forearm			R.Ulna			R.Radius			R.Wrist			R.Thumb.M1			R.Thumb.M2			R.Thumb.M3			R.Finger3.M1			R.Finger3.M2			R.Finger3.M3			L.Biceps.Lateral			L.Elbow			L.Elbow.Medial			L.Forearm			L.Ulna			L.Radius			L.Wrist			L.Thumb.M1			L.Thumb.M2			L.Thumb.M3			L.Finger3.M1			L.Finger3.M2			L.Finger3.M3			V.Sacral			R.ASIS			L.ASIS			R.Thigh			R.Thigh.Front			R.Knee			R.Knee.Medial			R.Shank			R.Ankle			R.Ankle.Medial			R.Heel			R.Toe			R.MedFoot			L.Thigh			L.Knee			L.Knee.Medial			L.Shank			L.Ankle			L.Ankle.Medial			L.Heel			L.Toe			L.MedFoot			V_mid_ASIS			V_R_Knee_JC			V_L_Knee_JC			V_R_Elbow_JC			V_L_Elbow_JC			V_R_Ankle_JC			V_L_Ankle_JC			V_R_Wrist_JC			V_L_Wrist_JC			V_R_ScaTrpz_1stMC_JC			V_R_1stMC_1stPP_JC			V_R_1stPP_1stDP_JC			V_R_LunCap_3rdMC_JC			V_R_3rdMC_3rdPP_JC			V_R_3rdPP_3rdMP_JC			V_R_3rdMP_3rdDP_JC			V_L_ScaTrpz_1stMC_JC			V_L_1stMC_1stPP_JC			V_L_1stPP_1stDP_JC			V_L_LunCap_3rdMC_JC			V_L_3rdMC_3rdPP_JC			V_L_3rdPP_3rdMP_JC			V_L_3rdMP_3rdPP_JC			V_ROOT_JC			V_R_Hip_JC			V_L_Hip_JC			V_R_GlenHum_JC			V_L_GlenHum_JC			V_ForeHead_Ctr			V_Vertex			V_Sagit_Lambdoid_Suture			V_R_FrontoTemp			V_L_FrontoTemporal			V_R_ParietalOccip			V_L_ParietalOcciptal			V_R_Temporal			V_L_Temporal			V_mid_FrontRearHead			V_mid_RLGlenHumCtrs			V_C7_vert			V_C1_vert			V_Mid_Hip			
		X1	Y1	Z1	X2	Y2	Z2	X3	Y3	Z3	X4	Y4	Z4	X5	Y5	Z5	X6	Y6	Z6	X7	Y7	Z7	X8	Y8	Z8	X9	Y9	Z9	X10	Y10	Z10	X11	Y11	Z11	X12	Y12	Z12	X13	Y13	Z13	X14	Y14	Z14	X15	Y15	Z15	X16	Y16	Z16	X17	Y17	Z17	X18	Y18	Z18	X19	Y19	Z19	X20	Y20	Z20	X21	Y21	Z21	X22	Y22	Z22	X23	Y23	Z23	X24	Y24	Z24	X25	Y25	Z25	X26	Y26	Z26	X27	Y27	Z27	X28	Y28	Z28	X29	Y29	Z29	X30	Y30	Z30	X31	Y31	Z31	X32	Y32	Z32	X33	Y33	Z33	X34	Y34	Z34	X35	Y35	Z35	X36	Y36	Z36	X37	Y37	Z37	X38	Y38	Z38	X39	Y39	Z39	X40	Y40	Z40	X41	Y41	Z41	X42	Y42	Z42	X43	Y43	Z43	X44	Y44	Z44	X45	Y45	Z45	X46	Y46	Z46	X47	Y47	Z47	X48	Y48	Z48	X49	Y49	Z49	X50	Y50	Z50	X51	Y51	Z51	X52	Y52	Z52	X53	Y53	Z53	X54	Y54	Z54	X55	Y55	Z55	X56	Y56	Z56	X57	Y57	Z57	X58	Y58	Z58	X59	Y59	Z59	X60	Y60	Z60	

63	0.517	778.60730	-68.85119	1746.83167	698.57281	-43.99850	1613.25769	918.23328	-82.54839	1693.97034	809.91406	-49.98236	1453.83813	1028.65417	-72.93234	1569.61755	944.33374	57.30466	1490.91748	919.41986	-185.56290	1468.36938	1005.38080	156.49347	1489.17163	958.38257	-293.63004	1468.56262	1105.73157	19.26286	1486.23352	1096.44482	-170.22722	1468.32996	1139.86841	23.58554	1396.20801	1051.68066	191.15752	1350.54663	1120.80493	219.57611	1170.03992	1109.63623	121.53169	1159.29724	1024.06946	224.46048	1106.51367	1077.53394	224.91783	969.72919	963.77338	227.68353	945.21295	966.24957	275.78882	921.38287	937.20850	229.88245	902.22577	920.12506	216.82620	852.15192	912.43170	229.47130	802.93463	940.76459	306.16501	848.12427	959.02106	261.55386	781.29492	977.93549	211.43816	818.35272	1020.70752	-321.92395	1326.77698	1098.19958	-339.22797	1164.08582	1115.56763	-244.15881	1142.14417	1021.25366	-336.77499	1077.27759	1088.12317	-362.61920	977.13031	995.65430	-343.22318	916.27307	1019.85132	-385.60001	884.21631	974.58252	-344.26688	858.50000	961.47382	-315.01074	814.56628	956.40460	-314.06543	764.93701	1001.38849	-393.28015	782.93976	1003.66998	-360.71954	725.64545	1011.45465	-301.49728	728.39771	1157.78333	-70.13064	1116.66052	984.03351	135.78717	1055.63684	953.44800	-213.14566	1059.44714	971.12231	141.59233	679.27972	875.73511	81.99885	567.91632	941.42249	130.35770	515.96143	926.77948	10.79254	511.95224	1049.14087	81.65989	322.96832	1261.45178	92.35362	194.54736	1215.78210	-3.85894	194.88078	1321.45227	29.41094	196.39276	1153.97607	70.59465	64.66648	1164.70618	37.66351	120.59061	944.50061	-211.51596	674.05042	922.82202	-183.92368	532.90460	934.19879	-75.87365	516.23206	922.25940	-134.35049	322.55276	1027.02588	-141.24561	77.33585	980.44232	-51.17716	111.59310	1066.80835	-70.47602	47.27521	844.09106	-127.88862	42.24545	909.00360	-88.02136	85.92812																																																																																																																															
64	0.525	772.14978	-69.46272	1747.27893	693.19562	-43.45930	1613.19043	913.07312	-82.28963	1693.93066	804.11176	-47.93024	1454.02637	1023.79767	-72.70052	1569.18323	938.60144	56.58391	1490.81543	913.93872	-186.08539	1468.32935	999.93463	155.74493	1488.75122	952.24756	-294.05542	1468.14563	1100.69275	19.51402	1486.03601	1091.29346	-171.63417	1468.69604	1135.28625	23.07943	1395.87024	1045.03625	190.42502	1351.29736	1115.81152	218.89578	1170.65381	1104.81116	120.28366	1158.81689	1018.37201	222.01526	1106.08228	1071.88586	225.07765	969.81451	957.63641	225.18314	943.09625	960.30542	273.82675	921.91779	932.95001	230.59163	898.61780	917.17395	216.31439	850.34473	911.85522	230.32980	799.96460	937.45184	306.65939	848.67645	958.50146	266.22806	780.47821	971.00183	214.09999	817.49615	1013.94714	-322.58121	1327.27856	1091.77002	-340.67517	1164.62488	1110.59546	-245.50388	1142.45654	1013.50763	-338.05920	1077.93945	1079.76929	-364.99924	977.29559	988.85333	-345.37845	915.92078	1010.35034	-386.17749	884.74701	965.36646	-344.95450	860.25220	953.53052	-317.20905	814.74341	946.36285	-315.46439	765.46497	992.54205	-395.83585	782.79395	994.49188	-361.38528	727.21008	1002.50012	-302.44516	728.84106	1152.64465	-70.01745	1116.87573	978.76135	135.93195	1055.74243	949.03522	-212.81697	1059.55054	961.82477	141.65038	680.91486	864.91241	81.45958	570.30328	929.58606	130.10420	516.73230	916.27991	12.21190	512.43719	1036.83533	82.82840	324.23724	1247.61499	94.06955	194.44907	1203.72705	-1.95994	194.55870	1309.18079	31.46659	195.02888	1138.97266	73.05408	66.20787	1150.14563	39.73139	121.87779	941.50317	-211.02930	673.53979	919.88220	-184.57056	532.02869	931.82019	-76.24429	515.95789	921.07965	-134.28613	322.11710	1027.04651	-140.96040	77.07952	980.44232	-51.17716	111.59310	1066.80835	-70.47602	47.27521	843.89191	-128.46458	42.18072	908.96954	-88.03754	85.76498																																																																																																																															
65	0.533	767.75415	-68.31583	1747.81213	687.33380	-42.94308	1613.84900	907.41687	-81.92029	1694.18372	799.95270	-49.44758	1454.90710	1018.83295	-73.11363	1569.59839	934.23065	57.31988	1490.99902	908.83527	-185.03764	1469.07483	995.95233	155.76915	1488.32703	947.72803	-292.63983	1468.47180	1096.38550	19.40126	1485.71692	1085.50525	-171.58301	1468.83679	1130.59009	22.59026	1395.75867	1042.18262	189.80785	1351.28503	1110.94849	218.90652	1169.96863	1099.50757	121.02232	1158.96252	1012.52985	220.91551	1105.10986	1066.98267	223.92010	970.38397	952.87915	224.46342	942.85071	956.82849	274.39465	921.64801	928.20392	230.11322	898.19348	915.93713	216.45598	846.49579	911.99286	230.35098	796.89130	934.11938	306.31689	848.11371	958.46454	268.21735	780.23016	974.92059	218.28094	816.30194	1008.60242	-323.80200	1328.00793	1084.98804	-341.63077	1165.41187	1103.37573	-248.14224	1142.03809	1005.77771	-338.15237	1079.11707	1072.37378	-366.38959	977.73907	978.33289	-346.68063	917.25079	1002.31689	-387.91339	885.04736	956.67914	-346.59805	860.97101	944.44775	-317.32303	815.10663	938.36255	-317.06775	765.65485	983.03033	-395.58496	783.99652	985.87994	-363.06555	727.24719	993.78052	-304.62637	729.59631	1147.70593	-71.19553	1117.53967	972.54370	136.41713	1056.78552	943.32697	-214.14517	1059.68396	952.03625	142.27266	682.32678	854.10797	81.96464	572.44849	918.42426	130.42377	519.12427	904.90796	10.92144	514.45825	1023.39160	83.79168	325.43689	1233.50452	96.18243	194.46017	1190.93152	0.17457	194.21657	1294.85034	33.66674	194.64040	1123.83594	73.36965	66.38865	1136.31836	41.39253	122.33576	938.16931	-211.95634	673.83789	917.78314	-184.32169	532.11639	930.84930	-76.49236	516.23853	920.03253	-134.24379	322.09735	1026.75024	-141.07474	77.31922	980.01404	-50.67208	111.74790	1066.74805	-70.53034	47.29037	843.87622	-128.77739	42.52542	908.83588	-88.17387	85.51025																																																																																																																															
66	0.542	760.41443	-68.46699	1748.52002	682.80890	-42.75446	1613.75354	902.04437	-82.52835	1694.41455	794.33167	-49.40811	1455.40710	1013.10480	-73.04115	1569.90344	928.74884	55.65744	1490.71973	902.96631	-186.58461	1469.38916	990.32184	155.56995	1488.10986	940.70190	-293.05792	1469.75220	1091.27551	18.94836	1486.04199	1080.08203	-171.86032	1469.12256	1125.63501	22.21884	1396.04932	1035.78735	188.18248	1351.55627	1106.13464	217.58421	1170.17163	1094.75391	119.63290	1159.71240	1008.00397	219.64027	1105.15820	1061.66968	225.42114	970.93170	948.18823	224.92325	942.92914	948.79419	273.70776	921.77496	924.59467	229.12534	896.73743	913.02032	215.23038	844.66522	911.57867	227.83606	794.21625	931.04089	305.51425	846.40900	958.16333	269.39777	779.94385	973.83557	217.99210	815.91675	1002.71991	-324.48645	1328.35510	1077.28955	-342.63516	1166.58850	1096.70374	-249.19270	1141.51501	997.26501	-338.20160	1079.22205	1063.18274	-367.40997	978.78979	968.96240	-347.25339	919.54028	993.21631	-388.51834	886.10791	948.94025	-347.59039	862.28442	933.90491	-319.08051	816.34143	930.03003	-317.80725	766.49530	973.48529	-397.68811	785.24976	976.14154	-365.46716	727.80823	983.88519	-306.83865	730.11139	1142.57263	-70.72089	1117.86096	967.69366	135.54578	1057.31116	938.83038	-213.80614	1060.32263	943.17621	142.18056	682.72430	843.49554	81.27972	574.99011	906.83783	130.68196	521.04883	895.37488	12.25941	516.06293	1010.63171	85.09196	326.04501	1218.93384	98.31298	193.76508	1176.39270	0.80644	193.98749	1281.75525	35.70274	191.88741	1108.17651	72.28469	66.97437	1121.36646	41.64418	122.49416	934.03564	-211.06107	673.53278	915.66089	-184.39955	531.63641	928.92322	-76.26108	515.64508	918.71008	-134.37973	321.79285	1025.83228	-140.69002	77.30801	980.01404	-50.67208	111.74790	1066.64917	-70.39358	47.41512	843.88208	-128.70076	42.22250	908.88068	-88.09750	85.45532																																																																																																																															
